<?xml version="1.0" encoding="utf-8"?>
<!-- Generator: Adobe Illustrator 22.1.0, SVG Export Plug-In . SVG Version: 6.00 Build 0)  -->
<svg version="1.1" id="_70_mg" xmlns="http://www.w3.org/2000/svg" xmlns:xlink="http://www.w3.org/1999/xlink" x="0px" y="0px"
	 viewBox="0 0 188.5 72.7" style="enable-background:new 0 0 188.5 72.7;" xml:space="preserve">
<style type="text/css">
	.st0{fill:#FFFFFF;}
</style>
<title>Aimovig_70mg_Logo_TM_RGB</title>
<metadata><?xpacket begin="﻿" id="W5M0MpCehiHzreSzNTczkc9d"?>
<x:xmpmeta xmlns:x="adobe:ns:meta/" x:xmptk="Adobe XMP Core 5.6-c143 79.161356, 2017/09/07-01:11:22        ">
   <rdf:RDF xmlns:rdf="http://www.w3.org/1999/02/22-rdf-syntax-ns#">
      <rdf:Description rdf:about=""
            xmlns:dc="http://purl.org/dc/elements/1.1/">
         <dc:title>
            <rdf:Alt>
               <rdf:li xml:lang="x-default">Aimovig_70mg_Logo_TM_RGB</rdf:li>
            </rdf:Alt>
         </dc:title>
      </rdf:Description>
   </rdf:RDF>
</x:xmpmeta>
                                                                                                    
                                                                                                    
                                                                                                    
                                                                                                    
                                                                                                    
                                                                                                    
                                                                                                    
                                                                                                    
                                                                                                    
                                                                                                    
                                                                                                    
                                                                                                    
                                                                                                    
                                                                                                    
                                                                                                    
                                                                                                    
                                                                                                    
                                                                                                    
                                                                                                    
                                                                                                    
                           
<?xpacket end="w"?></metadata>
<g>
	<g>
		<path class="st0" d="M117,25.1c-6.3,0-11.5,5.2-11.5,11.6c0,6.5,5.1,11.6,11.5,11.6c6.3,0,11.5-5.2,11.5-11.6
			C128.5,30.3,123.4,25.1,117,25.1z M125.2,36.7c0,4.6-3.7,8.3-8.2,8.3c-4.5,0-8.2-3.7-8.2-8.3c0-4.6,3.7-8.3,8.2-8.3
			C121.5,28.4,125.2,32.1,125.2,36.7z"/>
		<g>
			<path class="st0" d="M153.2,16.3c1.4,0,2.5,1,2.5,2.3c0,1.4-1.1,2.3-2.5,2.3c-1.4,0-2.5-1-2.5-2.3
				C150.7,17.2,151.8,16.3,153.2,16.3z"/>
			<rect x="151.5" y="25.9" class="st0" width="3.3" height="22.1"/>
		</g>
		<path class="st0" d="M53,25.9v2.7c-2.1-2.2-5.1-3.5-8.2-3.5c-6.3,0-11.5,5.2-11.5,11.6c0,6.5,5.1,11.6,11.5,11.6
			c3.1,0,6.1-1.3,8.2-3.5V48h3.3V25.9H53z M44.8,45c-4.5,0-8.2-3.7-8.2-8.3c0-4.6,3.7-8.3,8.2-8.3c4.5,0,8.2,3.7,8.2,8.3
			C53,41.3,49.3,45,44.8,45z"/>
		<g>
			<path class="st0" d="M63.7,16.3c1.4,0,2.5,1,2.5,2.3c0,1.4-1.1,2.3-2.5,2.3c-1.4,0-2.5-1-2.5-2.3C61.2,17.2,62.3,16.3,63.7,16.3z
				"/>
			<rect x="62" y="25.9" class="st0" width="3.3" height="22.1"/>
		</g>
		<path class="st0" d="M93.2,25c-2.7,0-5.3,1.3-6.9,3.5c-1.6-2.2-4.1-3.5-6.9-3.5c-1.9,0-3.7,0.6-5.2,1.8v-0.9h-3.3V48h3.3V33.6
			c0-2.9,2.3-5.3,5.2-5.3c2.9,0,5.2,2.4,5.2,5.3V48H88V33.6c0-2.9,2.3-5.3,5.2-5.3c2.9,0,5.2,2.4,5.2,5.3l0,14.3h3.3V33.6
			C101.7,28.9,97.9,25,93.2,25z"/>
		<polygon class="st0" points="148.5,25.9 145.1,25.9 138.8,40.3 132.4,25.9 129,25.9 138.8,48.6 		"/>
		<path class="st0" d="M181.5,25.9h-3.3v2.7c-2.1-2.2-5.1-3.5-8.2-3.5c-6.3,0-11.5,5.2-11.5,11.6c0,6.5,5.1,11.6,11.5,11.6
			c3.1,0,6.1-1.3,8.2-3.5v1.5c0,4.6-3.7,8.3-8.2,8.3c-2,0-3.9-0.7-5.3-2l-0.8-0.7l-2.3,2.4l1,0.9c2.1,1.7,4.7,2.7,7.4,2.7
			c6.5,0,11.5-5.1,11.5-11.6v-2.6h0V25.9z M170,45c-4.5,0-8.2-3.7-8.2-8.3c0-4.6,3.7-8.3,8.2-8.3c4.5,0,8.2,3.7,8.2,8.3
			C178.2,41.3,174.5,45,170,45z"/>
	</g>
	<g>
		<path class="st0" d="M182.8,23.8h-0.7v-0.5h2.1v0.5h-0.7v2.1h-0.6V23.8z"/>
		<path class="st0" d="M184.4,23.3h0.9l0.6,1.7h0l0.6-1.7h0.9v2.6h-0.6v-2h0l-0.7,2h-0.4l-0.7-2h0v2h-0.6V23.3z"/>
	</g>
	<g>
		<path class="st0" d="M37.7,71.5c-0.6-0.6-1.1-1.1-1.4-1.7c-0.4-0.7-0.4-1.4-0.4-2.1V56c0-0.7,0.1-1.4,0.4-2.1
			c0.3-0.7,0.8-1.1,1.4-1.7l0.8,0.8c-0.4,0.4-0.9,0.8-1.1,1.4c-0.2,0.5-0.3,1.1-0.3,1.8v11.5c0,0.7,0.1,1.3,0.3,1.8
			c0.3,0.5,0.7,0.9,1.1,1.4L37.7,71.5z"/>
		<path class="st0" d="M40.2,64.2c0,2.2,0.1,3.3,0.6,3.9c0.2,0.3,0.6,0.5,1.1,0.5c0.4,0,0.8-0.1,1.1-0.4c0.3-0.3,0.5-0.9,0.5-1.5
			h1.2c0,1.1-0.2,1.7-0.8,2.3c-0.5,0.5-1.2,0.8-2,0.8c-0.9,0-1.5-0.3-2-0.8C39.1,68.1,39,66.7,39,64c0-2.6,0.2-4.1,0.9-4.8
			c0.5-0.5,1.1-0.8,2-0.8c0.8,0,1.5,0.3,2,0.8c0.8,0.8,0.9,2.4,0.9,5H40.2z M42.9,60c-0.2-0.3-0.6-0.5-1.1-0.5S41,59.7,40.7,60
			c-0.4,0.5-0.5,1.4-0.5,3.3h3.2C43.4,61.4,43.3,60.5,42.9,60z"/>
		<path class="st0" d="M49.3,59.5c-1.3,0-2.1,0.8-2.1,2.1v7.8H46V58.6h1.2v1.2c0.1-0.2,0.4-0.5,0.5-0.7c0.5-0.5,1.1-0.6,1.9-0.6v1.1
			H49.3z"/>
		<path class="st0" d="M51.4,64.2c0,2.2,0.1,3.3,0.6,3.9c0.2,0.3,0.6,0.5,1.1,0.5c0.4,0,0.8-0.1,1.1-0.4c0.3-0.3,0.5-0.9,0.5-1.5
			h1.2c0,1.1-0.2,1.7-0.8,2.3c-0.5,0.5-1.2,0.8-2,0.8c-0.9,0-1.5-0.3-2-0.8c-0.7-0.8-0.9-2.2-0.9-4.8c0-2.6,0.2-4.1,0.9-4.8
			c0.5-0.5,1.1-0.8,2-0.8c0.8,0,1.5,0.3,2,0.8c0.8,0.8,0.9,2.4,0.9,5H51.4z M54.1,60c-0.2-0.3-0.6-0.5-1.1-0.5S52.2,59.7,52,60
			c-0.4,0.5-0.5,1.4-0.5,3.3h3.2C54.7,61.4,54.6,60.5,54.1,60z"/>
		<path class="st0" d="M61.5,69.5v-8.2c0-1.2-0.7-1.8-1.5-1.8c-0.8,0-1.5,0.6-1.5,1.8v8.2h-1.2V58.6h1.2v0.9
			c0.1-0.2,0.4-0.5,0.6-0.7c0.3-0.2,0.8-0.4,1.2-0.4c0.7,0,1.3,0.3,1.7,0.8c0.4,0.5,0.7,1.1,0.7,2.1v8.2H61.5z"/>
		<path class="st0" d="M68.5,69.5v-0.9c-0.1,0.2-0.4,0.5-0.6,0.7c-0.3,0.2-0.8,0.4-1.2,0.4c-0.7,0-1.3-0.3-1.7-0.7
			c-0.4-0.5-0.7-1.1-0.7-2.2v-8.2h1.2v8.2c0,1.2,0.7,1.8,1.5,1.8s1.5-0.6,1.5-1.8v-8.2h1.2v10.9H68.5z"/>
		<path class="st0" d="M79.8,69.5v-8.2c0-1.2-0.7-1.8-1.5-1.8s-1.5,0.6-1.5,1.8v8.2h-1.2v-8.2c0-1.2-0.7-1.8-1.5-1.8
			s-1.5,0.6-1.5,1.8v8.2h-1.2V58.6h1.2v0.9c0.1-0.2,0.4-0.5,0.6-0.7c0.3-0.2,0.8-0.4,1.2-0.4c0.8,0,1.6,0.5,2,1.2
			c0.2-0.3,0.5-0.6,0.8-0.8c0.4-0.2,0.8-0.4,1.3-0.4c0.9,0,1.4,0.3,1.8,0.8c0.4,0.5,0.7,1.1,0.7,2.1v8.2H79.8z"/>
		<path class="st0" d="M86.6,69.5v-1c-0.2,0.3-0.4,0.6-0.6,0.7c-0.3,0.3-0.7,0.4-1.3,0.4c-0.7,0-1.3-0.2-1.7-0.7
			c-0.4-0.4-0.7-1.3-0.7-2.5c0-1,0.3-1.9,0.9-2.5c0.5-0.5,1.2-0.7,2.1-0.7h1.2v-2c0-1.2-0.5-1.9-1.5-1.9c-0.4,0-0.8,0.2-1,0.4
			c-0.3,0.4-0.5,0.8-0.5,1.5h-1.2c0-0.8,0.2-1.6,0.8-2.3c0.5-0.5,1.1-0.7,1.9-0.7c0.9,0,1.5,0.2,2,0.7c0.5,0.5,0.8,1.2,0.8,2.3v8.1
			H86.6z M86.6,64.2h-1.2c-0.6,0-1,0.1-1.3,0.5c-0.4,0.4-0.6,1-0.6,1.8c0,1.3,0.5,2.1,1.5,2.1c1,0,1.6-0.8,1.6-2V64.2z"/>
		<path class="st0" d="M94.2,68.9c-0.5,0.5-1,0.8-1.7,0.8c-0.5,0-0.9-0.1-1.2-0.4c-0.2-0.1-0.5-0.4-0.6-0.7v0.9h-1.2V54.2h1.2v5.2
			c0.1-0.2,0.4-0.5,0.6-0.6c0.4-0.2,0.8-0.3,1.2-0.3c0.8,0,1.3,0.3,1.7,0.8c0.7,0.8,0.8,2.1,0.8,4.9S94.9,68.1,94.2,68.9z M93.2,60
			c-0.2-0.3-0.6-0.5-1.1-0.5c-0.4,0-0.8,0.2-1,0.4c-0.3,0.3-0.5,0.8-0.5,1.5v5.3c0,0.7,0.2,1.2,0.5,1.5c0.3,0.3,0.6,0.4,1,0.4
			c0.4,0,0.8-0.2,1.1-0.5c0.5-0.6,0.6-1.7,0.6-4.1C93.8,61.7,93.7,60.6,93.2,60z"/>
		<path class="st0" d="M96.4,64.1V63h4.1v1.1H96.4z"/>
		<path class="st0" d="M105.9,69.5v-1c-0.2,0.3-0.4,0.6-0.6,0.7c-0.3,0.3-0.7,0.4-1.3,0.4c-0.7,0-1.3-0.2-1.7-0.7
			c-0.4-0.4-0.7-1.3-0.7-2.5c0-1,0.3-1.9,0.9-2.5c0.5-0.5,1.2-0.7,2.1-0.7h1.2v-2c0-1.2-0.5-1.9-1.5-1.9c-0.4,0-0.8,0.2-1,0.4
			c-0.3,0.4-0.5,0.8-0.5,1.5h-1.2c0-0.8,0.2-1.6,0.8-2.3c0.5-0.5,1.1-0.7,1.9-0.7c0.9,0,1.5,0.2,2,0.7c0.5,0.5,0.8,1.2,0.8,2.3v8.1
			H105.9z M105.8,64.2h-1.2c-0.6,0-1,0.1-1.3,0.5c-0.4,0.4-0.6,1-0.6,1.8c0,1.3,0.5,2.1,1.5,2.1c1,0,1.6-0.8,1.6-2V64.2z"/>
		<path class="st0" d="M113.3,68.8c-0.5,0.6-1.1,0.9-2,0.9c-0.9,0-1.5-0.3-2-0.9c-0.7-0.8-0.8-2.2-0.8-4.8s0.2-4,0.8-4.8
			c0.5-0.6,1.1-0.9,2-0.9c0.9,0,1.5,0.3,2,0.9c0.7,0.8,0.8,2.2,0.8,4.8S113.9,68,113.3,68.8z M112.3,60c-0.2-0.3-0.6-0.5-1.1-0.5
			c-0.5,0-0.9,0.2-1.1,0.5c-0.5,0.6-0.5,1.7-0.5,4.1c0,2.3,0,3.5,0.5,4.1c0.2,0.3,0.6,0.5,1.1,0.5c0.5,0,0.8-0.2,1.1-0.5
			c0.5-0.6,0.6-1.7,0.6-4.1C112.9,61.7,112.8,60.6,112.3,60z"/>
		<path class="st0" d="M120.1,68.8c-0.5,0.6-1.1,0.9-2,0.9c-0.9,0-1.5-0.3-2-0.9c-0.7-0.8-0.8-2.2-0.8-4.8s0.2-4,0.8-4.8
			c0.5-0.6,1.1-0.9,2-0.9c0.9,0,1.5,0.3,2,0.9c0.7,0.8,0.8,2.2,0.8,4.8S120.8,68,120.1,68.8z M119.2,60c-0.2-0.3-0.6-0.5-1.1-0.5
			c-0.5,0-0.9,0.2-1.1,0.5c-0.5,0.6-0.5,1.7-0.5,4.1c0,2.3,0,3.5,0.5,4.1c0.2,0.3,0.6,0.5,1.1,0.5c0.5,0,0.8-0.2,1.1-0.5
			c0.5-0.6,0.6-1.7,0.6-4.1C119.7,61.7,119.7,60.6,119.2,60z"/>
		<path class="st0" d="M123.3,64.2c0,2.2,0.1,3.3,0.6,3.9c0.2,0.3,0.6,0.5,1.1,0.5c0.4,0,0.8-0.1,1.1-0.4c0.3-0.3,0.5-0.9,0.5-1.5
			h1.2c0,1.1-0.2,1.7-0.8,2.3c-0.5,0.5-1.2,0.8-2,0.8c-0.9,0-1.5-0.3-2-0.8c-0.7-0.8-0.9-2.2-0.9-4.8c0-2.6,0.2-4.1,0.9-4.8
			c0.5-0.5,1.1-0.8,2-0.8c0.8,0,1.5,0.3,2,0.8c0.8,0.8,0.9,2.4,0.9,5H123.3z M126,60c-0.2-0.3-0.6-0.5-1.1-0.5s-0.9,0.2-1.1,0.5
			c-0.4,0.5-0.5,1.4-0.5,3.3h3.2C126.5,61.4,126.4,60.5,126,60z"/>
		<path class="st0" d="M130.4,69.8c-0.3,0.6-0.8,1.1-1.4,1.7l-0.8-0.8c0.4-0.4,0.9-0.8,1.1-1.4c0.2-0.5,0.3-1.1,0.3-1.8V56.1
			c0-0.7-0.1-1.3-0.3-1.8c-0.3-0.5-0.7-0.9-1.1-1.4l0.8-0.8c0.6,0.6,1.1,1.1,1.4,1.7c0.4,0.7,0.4,1.4,0.4,2.1v11.7
			C130.9,68.4,130.8,69.1,130.4,69.8z"/>
	</g>
	<g>
		<path class="st0" d="M133.9,52.2v-0.8h0.8v0.8H133.9z M134,59.1v-5.6h0.6v5.6H134z"/>
		<path class="st0" d="M137.8,59.1v-4.2c0-0.6-0.3-0.9-0.8-0.9c-0.4,0-0.8,0.3-0.8,0.9v4.2h-0.6v-5.6h0.6v0.5
			c0.1-0.1,0.2-0.3,0.3-0.3c0.2-0.1,0.4-0.2,0.6-0.2c0.4,0,0.6,0.1,0.9,0.4c0.2,0.2,0.3,0.5,0.3,1.1v4.2H137.8z"/>
		<path class="st0" d="M139.6,60.9c-0.3,0.3-0.7,0.4-1.1,0.4v-0.5c0.6,0,0.9-0.2,0.9-0.9v-6.3h0.6v6.3
			C140,60.4,139.9,60.7,139.6,60.9z M139.3,52.2v-0.8h0.8v0.8H139.3z"/>
		<path class="st0" d="M141.5,56.4c0,1.1,0,1.7,0.3,2c0.1,0.1,0.3,0.3,0.6,0.3c0.2,0,0.4-0.1,0.6-0.2c0.2-0.2,0.3-0.5,0.3-0.8h0.6
			c0,0.5-0.1,0.9-0.4,1.2c-0.2,0.3-0.6,0.4-1,0.4c-0.4,0-0.8-0.1-1-0.4c-0.4-0.4-0.5-1.1-0.5-2.5s0.1-2.1,0.5-2.5
			c0.2-0.3,0.6-0.4,1-0.4c0.4,0,0.8,0.1,1,0.4c0.4,0.4,0.4,1.2,0.4,2.6H141.5z M142.9,54.2c-0.1-0.1-0.3-0.3-0.5-0.3
			s-0.4,0.1-0.6,0.3c-0.2,0.3-0.3,0.7-0.3,1.7h1.7C143.2,54.9,143.1,54.4,142.9,54.2z"/>
		<path class="st0" d="M147,58.8c-0.2,0.3-0.6,0.4-1,0.4c-0.4,0-0.8-0.1-1-0.4c-0.3-0.4-0.4-1.1-0.4-2.4s0.1-2,0.4-2.4
			c0.2-0.3,0.6-0.5,1-0.5c0.4,0,0.7,0.1,1,0.3c0.3,0.3,0.4,0.8,0.4,1.2h-0.6c0-0.3,0-0.6-0.2-0.8c-0.1-0.2-0.3-0.2-0.5-0.2
			c-0.2,0-0.5,0.1-0.6,0.3c-0.3,0.3-0.3,0.9-0.3,2.1s0,1.8,0.3,2.1c0.1,0.1,0.3,0.3,0.6,0.3c0.2,0,0.4-0.1,0.5-0.2
			c0.2-0.2,0.2-0.5,0.2-0.8h0.6C147.4,58.1,147.3,58.5,147,58.8z"/>
		<path class="st0" d="M149,58.7c-0.3-0.3-0.4-0.6-0.4-1.1v-3.6h-0.7v-0.5h0.7v-1.6h0.6v1.6h1v0.5h-1v3.6c0,0.7,0.4,0.9,1,0.9v0.5
			C149.7,59.1,149.3,59,149,58.7z"/>
		<path class="st0" d="M150.8,52.2v-0.8h0.8v0.8H150.8z M150.9,59.1v-5.6h0.6v5.6H150.9z"/>
		<path class="st0" d="M154.9,58.7c-0.2,0.3-0.6,0.4-1,0.4c-0.5,0-0.8-0.1-1-0.4c-0.3-0.4-0.4-1.1-0.4-2.4s0.1-2,0.4-2.4
			c0.2-0.3,0.6-0.5,1-0.5c0.5,0,0.8,0.2,1,0.5c0.3,0.4,0.4,1.1,0.4,2.4S155.2,58.3,154.9,58.7z M154.4,54.2
			c-0.1-0.1-0.3-0.3-0.5-0.3c-0.2,0-0.4,0.1-0.6,0.3c-0.3,0.3-0.3,0.9-0.3,2.1s0,1.8,0.3,2.1c0.1,0.1,0.3,0.3,0.6,0.3
			c0.2,0,0.4-0.1,0.5-0.3c0.3-0.3,0.3-0.9,0.3-2.1S154.6,54.5,154.4,54.2z"/>
		<path class="st0" d="M158.3,59.1v-4.2c0-0.6-0.3-0.9-0.8-0.9c-0.4,0-0.8,0.3-0.8,0.9v4.2h-0.6v-5.6h0.6v0.5
			c0.1-0.1,0.2-0.3,0.3-0.3c0.2-0.1,0.4-0.2,0.6-0.2c0.4,0,0.6,0.1,0.9,0.4c0.2,0.2,0.3,0.5,0.3,1.1v4.2H158.3z"/>
		<path class="st0" d="M134.3,70.1h-0.6l2.1-7.3H134V64h-0.6v-1.8h2.9v0.5L134.3,70.1z"/>
		<path class="st0" d="M139.6,69.8c-0.2,0.2-0.6,0.4-1,0.4c-0.4,0-0.8-0.2-1-0.4c-0.2-0.2-0.4-0.6-0.4-1.1v-5c0-0.5,0.2-0.9,0.4-1.1
			c0.2-0.2,0.6-0.4,1-0.4c0.4,0,0.8,0.2,1,0.4c0.2,0.2,0.4,0.6,0.4,1.1v5C140,69.2,139.8,69.5,139.6,69.8z M139.3,63.6
			c0-0.6-0.4-0.9-0.8-0.9c-0.4,0-0.8,0.3-0.8,0.9v5.1c0,0.6,0.3,0.9,0.8,0.9c0.4,0,0.8-0.3,0.8-0.9V63.6z"/>
		<path class="st0" d="M146,70.1v-3.6c0-0.5-0.3-0.8-0.7-0.8s-0.7,0.3-0.7,0.8v3.6h-0.5v-3.6c0-0.5-0.3-0.8-0.7-0.8
			c-0.4,0-0.7,0.3-0.7,0.8v3.6h-0.5v-4.8h0.5v0.4c0.1-0.1,0.2-0.2,0.3-0.3c0.1-0.1,0.3-0.2,0.5-0.2c0.4,0,0.7,0.2,0.9,0.5
			c0.1-0.1,0.2-0.3,0.3-0.3c0.2-0.1,0.4-0.2,0.6-0.2c0.4,0,0.6,0.1,0.8,0.3c0.2,0.2,0.3,0.5,0.3,0.9v3.6H146z"/>
		<path class="st0" d="M149.3,71.6c-0.2,0.2-0.5,0.3-0.9,0.3c-0.3,0-0.6-0.1-0.9-0.3c-0.2-0.2-0.3-0.6-0.3-1h0.5
			c0,0.3,0,0.5,0.2,0.7c0.1,0.1,0.3,0.2,0.5,0.2c0.2,0,0.4-0.1,0.5-0.2c0.2-0.2,0.2-0.5,0.2-1.1v-0.6c0,0.1-0.2,0.2-0.3,0.3
			c-0.1,0.1-0.3,0.1-0.5,0.1c-0.3,0-0.5-0.1-0.7-0.3c-0.3-0.3-0.4-0.9-0.4-2.1s0.1-1.7,0.4-2.1c0.2-0.2,0.4-0.3,0.7-0.3
			c0.2,0,0.4,0.1,0.6,0.2c0.1,0.1,0.2,0.2,0.3,0.3v-0.4h0.5v4.9C149.6,71,149.5,71.3,149.3,71.6z M149.1,66.5c0-0.3-0.1-0.5-0.2-0.7
			c-0.1-0.1-0.3-0.2-0.5-0.2c-0.2,0-0.4,0.1-0.5,0.2c-0.2,0.3-0.2,0.7-0.2,1.7c0,1,0,1.5,0.2,1.7c0.1,0.1,0.3,0.2,0.5,0.2
			c0.2,0,0.3-0.1,0.5-0.2c0.1-0.1,0.2-0.3,0.2-0.7V66.5z"/>
		<path class="st0" d="M150.7,70.7h-0.5l1.7-8h0.5L150.7,70.7z"/>
		<path class="st0" d="M156.4,70.1v-3.6c0-0.5-0.3-0.8-0.7-0.8s-0.7,0.3-0.7,0.8v3.6h-0.5v-3.6c0-0.5-0.3-0.8-0.7-0.8
			s-0.7,0.3-0.7,0.8v3.6h-0.5v-4.8h0.5v0.4c0.1-0.1,0.2-0.2,0.3-0.3c0.1-0.1,0.3-0.2,0.5-0.2c0.4,0,0.7,0.2,0.9,0.5
			c0.1-0.1,0.2-0.3,0.3-0.3c0.2-0.1,0.4-0.2,0.6-0.2c0.4,0,0.6,0.1,0.8,0.3c0.2,0.2,0.3,0.5,0.3,0.9v3.6H156.4z"/>
		<path class="st0" d="M157.8,70.1v-6.7h0.6v6.2h1.8v0.5H157.8z"/>
	</g>
	<g>
		<path class="st0" d="M15.3,13.6l-0.2-0.5c-1.7-5.5-8.6-8.3-14-9.6l-1-0.2l0.9-0.3c4.6-1.4,9.2-1.3,13.3,0.5
			c0.3,0.1,0.6,0.2,0.9,0.4l0.2,0.1l-0.1,0.2c-0.1,0.4-0.1,0.8-0.1,1.2c0,1.8,1,3.5,2.7,4.4l0.3,0.2L18,10.1c-0.9,1-1.7,2-2.4,3
			L15.3,13.6z"/>
		<path class="st0" d="M18.7,9.4l-0.2-0.1c-1.6-0.7-2.6-2.3-2.7-4l0,0c0-0.8,0.2-1.4,0.2-1.4c0.7-1.9,2.5-3.2,4.6-3.2
			c2,0,3.8,1.2,4.6,3.1L25.3,4l-0.2,0.1c-2,1.1-3.9,2.9-5.5,4.3l-0.1,0.1c-0.2,0.2-0.4,0.4-0.6,0.6L18.7,9.4z"/>
		<path class="st0" d="M10,36.8l-0.2,1.4c-0.2-1.1-0.3-2.7-0.3-3.5c0-5.3,1-10.5,3-15.2l0,0c2-4.7,0.7-8.5-3.9-11.7
			c-1-0.7-3-1.8-3.1-1.9C5,5.5,4.6,5.3,4.4,5.1c0.4,0,1.5,0.4,1.5,0.4c5.3,2.1,8.3,5.1,9,8.8l0.1,0.7l0.4-0.6
			c0.9-1.4,2.1-2.9,3.4-4.3c0.1-0.1,0.3-0.3,0.4-0.4l0.2-0.2c0.2-0.2,0.4-0.4,0.6-0.6L20,8.9c0.8-0.7,1.6-1.5,2.4-2.2
			c1-0.8,1.8-1.4,2.7-1.9l0.3-0.2l0,0c3.3-1.7,6.7-2.6,10.3-2.6c5.8,0,11.3,2.5,15.9,6.9l0.6,0.6l-0.9-0.1c-1.9-0.3-4.5-0.6-7.2-0.7
			c-2,0-4.6,0.1-4.6,0.1c-6.4,0.2-12.6,2.4-17.7,6.4c-5.2,4-8.9,9.5-10.7,15.9C10.6,33,10.3,34.7,10,36.8z"/>
		<path class="st0" d="M15.6,55c-2.6-4.7-4.9-11.8-4.9-17.7c0.1-2.1,0.5-4.1,1.1-6.1l0,0c1.8-6.3,5.4-11.7,10.5-15.6
			c4-3.1,8.6-5.1,13.7-6c0.7-0.1,2.7-0.4,3.6-0.4c-0.2,0.1-0.6,0.1-1.4,0.4c-8.9,2.3-16.4,8.7-20.5,16.9c-1.3,2.3-2.3,4.7-3,7.2
			c-1.8,6.5-1.5,13,0.6,19.5L15.6,55z"/>
	</g>
</g>
</svg>
