<?xml version="1.0" encoding="utf-8"?>
<!-- Generator: Adobe Illustrator 22.1.0, SVG Export Plug-In . SVG Version: 6.00 Build 0)  -->
<svg version="1.1" id="Layer_1" xmlns="http://www.w3.org/2000/svg" xmlns:xlink="http://www.w3.org/1999/xlink" x="0px" y="0px"
	 viewBox="0 0 132.3 23.3" style="enable-background:new 0 0 132.3 23.3;" xml:space="preserve">
<metadata><?xpacket begin="﻿" id="W5M0MpCehiHzreSzNTczkc9d"?>
<x:xmpmeta xmlns:x="adobe:ns:meta/" x:xmptk="Adobe XMP Core 5.6-c143 79.161356, 2017/09/07-01:11:22        ">
   <rdf:RDF xmlns:rdf="http://www.w3.org/1999/02/22-rdf-syntax-ns#">
      <rdf:Description rdf:about=""/>
   </rdf:RDF>
</x:xmpmeta>
                                                                                                    
                                                                                                    
                                                                                                    
                                                                                                    
                                                                                                    
                                                                                                    
                                                                                                    
                                                                                                    
                                                                                                    
                                                                                                    
                                                                                                    
                                                                                                    
                                                                                                    
                                                                                                    
                                                                                                    
                                                                                                    
                                                                                                    
                                                                                                    
                                                                                                    
                                                                                                    
                           
<?xpacket end="w"?></metadata>
<style type="text/css">
	.st0{fill:#FFFFFF;}
</style>
<g id="XMLID_53_">
	<path id="XMLID_2_" class="st0" d="M122.5,17.9h0.3l1.2,2.7c0.3,0.2,1.2,0.6,2.2,0.6c1.5,0,2.9-0.9,2.9-2.5c0-1.2-0.8-1.9-2-2.6
		c-0.4-0.2-0.8-0.4-1.2-0.6c-1.5-0.8-3-1.9-3-3.6c0-1.9,1.3-3.4,4.1-3.4c1.4,0,2.7,0.4,2.9,0.5l0.3,2.9h-0.4l-1.1-2.3
		c-0.2-0.1-0.8-0.5-1.8-0.5c-1.4,0-2.4,0.9-2.4,2.1c0,1.1,0.7,1.8,2,2.5c0.5,0.2,1,0.5,1.5,0.8c2,1,3,2,3,3.8c0,2.2-2.1,3.6-4.6,3.6
		c-2,0-3.2-0.4-3.6-0.5L122.5,17.9z"/>
	<polygon id="XMLID_61_" class="st0" points="113.6,20.9 115.4,20.5 115.4,9.7 113.6,9.3 113.6,8.9 119.1,8.9 119.1,9.3 117.4,9.7 
		117.4,20.5 119.1,20.9 119.1,21.3 113.6,21.3 	"/>
	<polygon id="XMLID_55_" class="st0" points="104.3,9.5 104.3,20.5 102.6,20.9 102.6,21.3 108.1,21.3 108.1,20.9 106.3,20.5 
		106.3,9.5 109.3,9.5 110.3,11.6 110.6,11.6 110.4,8.9 100.3,8.9 100,11.6 100.4,11.6 101.4,9.5 	"/>
	<path class="st0" d="M93.5,15.2c0.4-0.1,2.9-0.7,2.9-3.1c0-1.9-1.4-3.3-5-3.3c-2.2,0-4.4,0.1-4.7,0.1v0.4l1.4,0.4v10.8l-1.4,0.4
		v0.4h5.1v-0.4l-1.7-0.4v-4.9h1.4l3.7,5.7h3.3v-0.4l-1.7-0.4L93.5,15.2z M91,15h-0.8V9.6c2.7,0,4.2,0.6,4.2,2.8
		C94.4,13.9,93,15,91,15z"/>
	<path class="st0" d="M71.6,20.9l1.4-0.4l4.4-11.6l1.5-0.4l4.5,12l1.4,0.4v0.4h-5.3v-0.5l1.8-0.4L80,17h-4.8l-1.3,3.4l1.8,0.4v0.5
		h-4.1L71.6,20.9L71.6,20.9z M75.5,16.1h4.1l-2.1-5.6l0,0L75.5,16.1z"/>
	<polygon id="XMLID_63_" class="st0" points="61.2,9.7 59.9,9.3 59.9,8.9 64.9,8.9 64.9,9.3 63.3,9.7 66.8,19.2 66.8,19.2 70.3,9.7 
		68.7,9.3 68.7,8.9 72.5,8.9 72.5,9.3 71.2,9.7 66.8,21.6 65.6,21.6 	"/>
	<path class="st0" d="M58.5,14.8c0,4.4-3.1,7-6.4,7c-3.4,0-6.4-2.6-6.4-6.6c0-4.1,3.1-6.6,6.4-6.6C56.2,8.5,58.5,11.7,58.5,14.8z
		 M56.4,15.4c0-3.2-1.9-6.4-4.6-6.4c-2.8,0-4.1,2.7-4.1,5.6s1.6,6.5,4.6,6.5C55.2,21.1,56.4,18.3,56.4,15.4z"/>
	<path id="XMLID_66_" class="st0" d="M41.3,21.5L33,10.9v9.6l1.7,0.4v0.4h-3.8v-0.5l1.4-0.4V10.1c-0.1-0.1-0.7-0.6-1.2-0.7
		c-0.2,0-0.4-0.1-0.4-0.1V8.8H34l7.1,9.1V9.6l-1.7-0.4V8.7h3.8v0.6l-1.4,0.4c0,0,0,8.4,0,9.5c0,0.9,0.1,2.2,0.1,2.3H41.3z"/>
	<polygon id="XMLID_73_" class="st0" points="10.5,17.5 12.2,0.8 8.6,0.8 10.3,17.5 	"/>
	<path id="XMLID_72_" class="st0" d="M14,10.3l-0.1,0.1c0.9,0.4,2.9,1.9,2.9,5c0,2.9-2.5,5.8-6.3,5.8c-4.8,0-6.5-2.8-6.5-5.4
		c0-3.3,2.3-5.5,2.3-8.5c0-2.1-1.6-4.2-3.7-4.5L2.5,2.9c0.9,0.9,1.2,1.9,1.2,2.8C3.7,8.9,1,11.3,1,15c0,3.4,2.4,6.9,9.4,6.9
		c6.2,0,9.5-3,9.5-6.3C19.9,13.1,17.9,10.7,14,10.3z"/>
</g>
</svg>
